<svg width="168" height="168" viewBox="0 0 168 168" fill="none" xmlns="http://www.w3.org/2000/svg">
<circle cx="83.9358" cy="83.9358" r="83.9358" fill="#02F55B" fill-opacity="0.15"/>
<path d="M82.4225 43.9656C60.3994 43.9656 42.4531 61.9118 42.4531 83.935C42.4531 105.958 60.3994 123.904 82.4225 123.904C104.446 123.904 122.392 105.958 122.392 83.935C122.392 61.9118 104.446 43.9656 82.4225 43.9656ZM101.528 74.742L78.8653 97.4047C78.3057 97.9643 77.5463 98.284 76.7469 98.284C75.9475 98.284 75.1881 97.9643 74.6285 97.4047L63.3172 86.0933C62.158 84.9342 62.158 83.0157 63.3172 81.8566C64.4763 80.6975 66.3948 80.6975 67.5539 81.8566L76.7469 91.0495L97.2912 70.5053C98.4503 69.3462 100.369 69.3462 101.528 70.5053C102.687 71.6644 102.687 73.5429 101.528 74.742Z" fill="#12DB4E"/>
</svg>
